<svg version="1.1" id="Layer_1" xmlns="http://www.w3.org/2000/svg" xmlns:xlink="http://www.w3.org/1999/xlink" x="0px" y="0px"
	 width="100%" viewBox="0 0 1076 531" enable-background="new 0 0 1076 531" xml:space="preserve">
<path fill="#FFFFFF" opacity="1.000000" stroke="none" 
	d="
M785.000000,532.000000 
	C523.333435,532.000000 262.166809,532.000000 1.000175,532.000000 
	C1.000117,355.000122 1.000117,178.000259 1.000058,1.000294 
	C359.666412,1.000196 718.332825,1.000196 1076.999512,1.000098 
	C1076.999634,177.999710 1076.999634,354.999420 1076.999756,531.999573 
	C979.833313,532.000000 882.666687,532.000000 785.000000,532.000000 
M239.499939,403.666931 
	C269.495728,403.666962 299.492096,403.585022 329.486359,403.799622 
	C332.343292,403.820068 335.632843,405.091553 337.959137,406.812744 
	C347.730133,414.042023 357.208374,421.666809 366.799072,429.140015 
	C380.319397,439.675262 394.047363,449.957581 407.284790,460.836914 
	C414.267181,466.575439 417.493622,474.623718 417.786407,483.784058 
	C418.015228,490.943939 418.640411,498.092712 418.793518,505.252747 
	C418.861572,508.434448 419.849457,509.577454 423.147217,509.566101 
	C453.309845,509.462219 483.473206,509.544617 513.635437,509.393402 
	C515.224243,509.385468 517.520813,508.159058 518.268066,506.819458 
	C521.914551,500.282471 525.146118,493.513977 528.525146,486.827759 
	C529.207275,485.477875 529.892395,484.129517 530.726379,482.483948 
	C535.075684,490.834412 538.932373,498.564178 543.159485,506.085693 
	C544.025024,507.625732 546.272705,509.351318 547.893799,509.361694 
	C578.222229,509.556519 608.552246,509.465698 638.881592,509.563141 
	C642.070435,509.573364 642.787476,508.246796 642.891113,505.413757 
	C643.158813,498.088867 643.738403,490.775970 644.088013,483.453278 
	C644.468384,475.486725 646.912170,468.281860 652.731934,462.756104 
	C658.997498,456.806976 665.445374,450.986420 672.276428,445.708771 
	C689.012207,432.778717 706.092163,420.294312 722.841797,407.381836 
	C726.069885,404.893280 729.098450,403.586609 733.209900,403.593964 
	C792.702454,403.700592 852.195312,403.667023 911.688049,403.667023 
	C913.618530,403.667023 915.549011,403.667023 918.353638,403.667023 
	C917.014221,401.546692 916.208069,400.164276 915.301331,398.851318 
	C904.699219,383.499207 894.131653,368.122681 883.420044,352.847229 
	C881.626160,350.288940 881.552673,348.484924 883.422363,345.836823 
	C894.087280,330.731842 904.538940,315.476196 915.049377,300.262299 
	C916.104553,298.734833 917.067261,297.143494 918.576965,294.799133 
	C870.793030,294.799133 824.193420,294.799133 777.021118,294.799133 
	C778.379944,270.235077 773.394836,246.894638 767.571106,222.988068 
	C754.578247,226.229660 741.827759,228.794388 729.474548,232.636490 
	C710.692017,238.478241 698.870300,251.589737 693.794922,270.522919 
	C692.670105,274.718781 691.044739,275.557190 686.698547,275.649841 
	C671.583008,275.972046 656.037598,275.994720 646.975708,291.694550 
	C645.167175,294.827850 642.105347,295.056122 638.738342,295.052582 
	C567.747070,294.977905 496.755371,294.900970 425.764984,295.161316 
	C419.511566,295.184235 415.298462,293.387024 412.037842,288.384796 
	C410.766785,286.434814 409.327515,284.583038 407.839844,282.790253 
	C407.015228,281.796509 406.033539,280.416412 404.950439,280.234222 
	C394.810577,278.528687 384.668091,276.688782 374.447845,275.694000 
	C370.966461,275.355133 369.278168,275.137024 368.300629,271.348053 
	C363.935272,254.427597 354.415741,241.047379 337.767578,234.923431 
	C323.810913,229.789551 309.093323,226.724228 294.386871,222.652817 
	C288.536255,246.982300 283.289673,270.296997 285.318726,295.036804 
	C241.719727,295.036804 198.855927,295.036804 155.254578,295.036804 
	C166.982300,311.997620 178.074570,328.376648 189.592072,344.451019 
	C192.355194,348.307373 192.138168,350.772827 189.441925,354.389191 
	C183.370193,362.532898 177.765442,371.025452 171.993347,379.391693 
	C166.552689,387.277557 161.141037,395.183411 155.314026,403.666626 
	C183.595139,403.666626 211.047531,403.666626 239.499939,403.666931 
M465.097778,65.627251 
	C452.038422,75.370491 438.979034,85.113739 424.825714,95.673141 
	C496.243530,95.673141 565.873535,95.673141 636.466370,95.673141 
	C634.721069,94.198196 633.786316,93.319489 632.764465,92.557579 
	C599.914551,68.063889 567.034180,43.610744 534.240540,19.041887 
	C531.614624,17.074535 529.868530,17.170771 527.296814,19.109516 
	C506.814148,34.551121 486.222626,49.848289 465.097778,65.627251 
M437.015381,247.386429 
	C437.296844,250.741135 434.995941,250.580292 432.741425,250.570053 
	C427.333740,250.545486 421.925903,250.562103 416.626068,250.562103 
	C416.626068,258.898529 416.626068,266.316101 416.626068,273.735291 
	C493.057739,273.735291 569.102600,273.735291 645.358765,273.735291 
	C645.358765,265.960175 645.358765,258.551758 645.358765,250.504379 
	C638.529541,250.504379 631.967834,250.504379 624.766357,250.504379 
	C624.766357,245.829453 624.766357,241.771454 624.766357,237.660690 
	C561.889221,237.660690 499.670776,237.660690 437.021301,237.660690 
	C437.021301,240.807907 437.021301,243.616165 437.015381,247.386429 
M479.978699,208.387070 
	C479.978699,178.336044 479.978699,148.285034 479.978699,118.290375 
	C468.627045,118.290375 458.090027,118.290375 447.591705,118.290375 
	C447.591705,150.900681 447.591705,183.077255 447.591705,215.212799 
	C458.556702,215.212799 469.102203,215.212799 479.978638,215.212799 
	C479.978638,212.980453 479.978638,211.165009 479.978699,208.387070 
M581.868164,153.500000 
	C581.868164,174.059418 581.868164,194.618835 581.868164,215.630035 
	C591.570435,215.630035 600.535461,215.416367 609.482605,215.724121 
	C613.679260,215.868500 614.793640,214.535995 614.769958,210.408890 
	C614.603577,181.283295 614.685059,152.156311 614.672729,123.029770 
	C614.672058,121.425575 614.540527,119.821426 614.471130,118.245132 
	C603.368103,118.245132 592.813599,118.245132 581.868042,118.245132 
	C581.868042,129.917694 581.868042,141.208847 581.868164,153.500000 
M538.430298,215.616684 
	C541.215942,215.616684 544.001587,215.616684 546.850098,215.616684 
	C546.850098,182.736969 546.850098,150.511917 546.850098,118.102219 
	C536.023499,118.102219 525.582642,118.102219 514.811279,118.102219 
	C514.811279,150.568970 514.811279,182.803604 514.811279,215.616348 
	C522.544617,215.616348 529.995605,215.616348 538.430298,215.616684 
z"/>
<path fill="#127DF1" opacity="1.000000" stroke="none" 
	d="
M238.999939,403.666779 
	C211.047531,403.666626 183.595139,403.666626 155.314026,403.666626 
	C161.141037,395.183411 166.552689,387.277557 171.993347,379.391693 
	C177.765442,371.025452 183.370193,362.532898 189.441925,354.389191 
	C192.138168,350.772827 192.355194,348.307373 189.592072,344.451019 
	C178.074570,328.376648 166.982300,311.997620 155.254578,295.036804 
	C198.855927,295.036804 241.719727,295.036804 285.318726,295.036804 
	C283.289673,270.296997 288.536255,246.982300 294.386871,222.652817 
	C309.093323,226.724228 323.810913,229.789551 337.767578,234.923431 
	C354.415741,241.047379 363.935272,254.427597 368.300629,271.348053 
	C369.278168,275.137024 370.966461,275.355133 374.447845,275.694000 
	C384.668091,276.688782 394.810577,278.528687 404.950439,280.234222 
	C406.033539,280.416412 407.015228,281.796509 407.839844,282.790253 
	C409.327515,284.583038 410.766785,286.434814 412.037842,288.384796 
	C415.298462,293.387024 419.511566,295.184235 425.764984,295.161316 
	C496.755371,294.900970 567.747070,294.977905 638.738342,295.052582 
	C642.105347,295.056122 645.167175,294.827850 646.975708,291.694550 
	C656.037598,275.994720 671.583008,275.972046 686.698547,275.649841 
	C691.044739,275.557190 692.670105,274.718781 693.794922,270.522919 
	C698.870300,251.589737 710.692017,238.478241 729.474548,232.636490 
	C741.827759,228.794388 754.578247,226.229660 767.571106,222.988068 
	C773.394836,246.894638 778.379944,270.235077 777.021118,294.799133 
	C824.193420,294.799133 870.793030,294.799133 918.576965,294.799133 
	C917.067261,297.143494 916.104553,298.734833 915.049377,300.262299 
	C904.538940,315.476196 894.087280,330.731842 883.422363,345.836823 
	C881.552673,348.484924 881.626160,350.288940 883.420044,352.847229 
	C894.131653,368.122681 904.699219,383.499207 915.301331,398.851318 
	C916.208069,400.164276 917.014221,401.546692 918.353638,403.667023 
	C915.549011,403.667023 913.618530,403.667023 911.688049,403.667023 
	C852.195312,403.667023 792.702454,403.700592 733.209900,403.593964 
	C729.098450,403.586609 726.069885,404.893280 722.841797,407.381836 
	C706.092163,420.294312 689.012207,432.778717 672.276428,445.708771 
	C665.445374,450.986420 658.997498,456.806976 652.731934,462.756104 
	C646.912170,468.281860 644.468384,475.486725 644.088013,483.453278 
	C643.738403,490.775970 643.158813,498.088867 642.891113,505.413757 
	C642.787476,508.246796 642.070435,509.573364 638.881592,509.563141 
	C608.552246,509.465698 578.222229,509.556519 547.893799,509.361694 
	C546.272705,509.351318 544.025024,507.625732 543.159485,506.085693 
	C538.932373,498.564178 535.075684,490.834412 530.726379,482.483948 
	C529.892395,484.129517 529.207275,485.477875 528.525146,486.827759 
	C525.146118,493.513977 521.914551,500.282471 518.268066,506.819458 
	C517.520813,508.159058 515.224243,509.385468 513.635437,509.393402 
	C483.473206,509.544617 453.309845,509.462219 423.147217,509.566101 
	C419.849457,509.577454 418.861572,508.434448 418.793518,505.252747 
	C418.640411,498.092712 418.015228,490.943939 417.786407,483.784058 
	C417.493622,474.623718 414.267181,466.575439 407.284790,460.836914 
	C394.047363,449.957581 380.319397,439.675262 366.799072,429.140015 
	C357.208374,421.666809 347.730133,414.042023 337.959137,406.812744 
	C335.632843,405.091553 332.343292,403.820068 329.486359,403.799622 
	C299.492096,403.585022 269.495728,403.666962 238.999939,403.666779 
M600.076111,337.066528 
	C600.076111,337.066528 599.848511,336.874695 599.846985,336.098328 
	C600.037720,334.515259 600.228516,332.932190 600.435730,331.212494 
	C595.405945,330.479034 592.542969,331.966492 592.020203,337.139587 
	C591.721985,340.090851 590.806824,342.977478 590.208435,345.901154 
	C588.531128,354.095917 586.874207,362.294800 585.222900,370.424835 
	C590.172241,371.877472 592.877930,370.945862 593.255615,365.853088 
	C593.449646,363.236023 594.573608,360.699768 594.917603,358.079742 
	C595.965454,350.100189 600.194336,344.127289 606.700378,339.841583 
	C608.845703,338.428406 611.789429,338.227356 614.368103,337.472076 
	C614.704956,340.113586 615.249268,342.750977 615.301514,345.398102 
	C615.333130,347.002075 614.555542,348.611328 614.223450,350.234985 
	C612.845703,356.972046 611.499084,363.715454 610.136353,370.480072 
	C617.098877,371.381226 617.117004,371.384979 618.307251,365.621643 
	C619.985657,357.493958 621.702148,349.373230 623.275269,341.224976 
	C624.771423,333.476105 619.299072,328.207733 611.898743,330.758026 
	C607.777649,332.178192 604.154053,335.041992 600.076111,337.066528 
M444.948700,462.703552 
	C445.934814,466.903137 446.697510,471.175598 448.031036,475.261810 
	C448.483704,476.648804 450.361816,478.530365 451.614227,478.550049 
	C466.258636,478.779999 480.908844,478.770355 495.554413,478.581360 
	C496.963745,478.563202 499.119324,477.233826 499.636353,475.980194 
	C508.866455,453.600769 510.135590,431.167206 499.646240,408.735199 
	C498.021515,405.260590 496.037262,403.514923 491.735565,403.542175 
	C458.113098,403.755341 424.488647,403.657257 390.864807,403.670013 
	C389.362793,403.670593 387.860840,403.813477 385.086975,403.954895 
	C395.449432,411.713379 404.677979,418.507080 413.780426,425.465790 
	C426.732666,435.367645 438.271851,446.506348 444.948700,462.703552 
M621.568726,453.151581 
	C630.556274,438.675537 643.671143,428.447937 657.129944,418.565704 
	C663.351990,413.997070 669.524963,409.361572 675.720154,404.756439 
	C675.608093,404.390961 675.495972,404.025482 675.383911,403.660004 
	C673.631042,403.660004 671.878113,403.660004 670.125244,403.660004 
	C637.162415,403.659973 604.198730,403.774872 571.237671,403.536163 
	C566.282288,403.500244 563.814453,405.186584 561.837769,409.547455 
	C551.847534,431.587738 553.049744,453.529358 562.068970,475.408203 
	C562.682312,476.895996 565.133606,478.528625 566.756531,478.556488 
	C581.069519,478.802277 595.389038,478.630249 609.705139,478.757111 
	C612.650024,478.783203 613.375000,477.706268 614.134766,474.915802 
	C616.083374,467.758453 618.772522,460.802704 621.568726,453.151581 
M694.649536,370.978821 
	C699.147644,370.976440 703.658936,371.194061 708.140930,370.924500 
	C716.657898,370.412201 723.807922,367.083405 727.437073,358.963837 
	C730.679382,351.709930 729.209961,345.006256 722.882507,339.762543 
	C724.381287,338.217072 725.686829,336.937897 726.916992,335.589966 
	C730.822815,331.310394 732.150879,326.313049 730.342163,320.805878 
	C728.617371,315.554260 724.187927,313.534576 719.159668,312.980682 
	C714.379333,312.454071 709.515015,312.681000 704.737793,312.136658 
	C700.689819,311.675476 699.619324,313.689240 699.018677,317.106934 
	C697.466248,325.940338 695.684753,334.733887 693.960754,343.536652 
	C692.215027,352.450378 690.428589,361.356140 688.576538,370.685699 
	C690.775574,370.811615 692.235229,370.895172 694.649536,370.978821 
M439.150208,347.735687 
	C437.646606,355.292847 436.143005,362.850037 434.607300,370.568634 
	C437.507538,370.568634 439.559753,370.568634 441.470490,370.568634 
	C442.628540,365.622284 444.065033,361.141174 444.665771,356.550720 
	C445.683594,348.773041 450.175110,343.471832 456.214935,339.280975 
	C457.911377,338.103821 460.397339,338.064606 462.521179,337.503448 
	C462.852905,339.676361 463.774139,341.952728 463.414001,344.004211 
	C461.867584,352.813934 459.944427,361.557526 458.158691,370.324249 
	C464.991913,371.723633 465.018372,371.646362 466.213959,365.597076 
	C467.051086,361.361420 467.810486,357.066437 469.175537,352.989105 
	C471.428986,346.258240 475.865143,341.137695 482.251465,337.927429 
	C485.682678,336.202606 487.907227,337.616516 487.536804,341.383667 
	C487.180328,345.009338 486.295502,348.587067 485.574310,352.172058 
	C484.348907,358.263458 483.069733,364.343994 481.762878,370.672577 
	C484.585083,370.672577 486.668976,370.672577 488.894104,370.672577 
	C490.965454,360.822266 493.096893,351.254456 494.940094,341.631409 
	C495.642059,337.966492 495.491699,334.108368 492.024414,331.648041 
	C488.488922,329.139313 484.697388,329.775604 481.211273,331.876190 
	C478.155365,333.717529 475.289124,335.873749 472.319397,337.904297 
	C467.440186,327.529999 463.614929,327.471497 448.815735,337.706238 
	C449.122314,335.336548 449.381805,333.330750 449.677124,331.047882 
	C445.300629,330.899506 441.973572,331.260956 441.566711,336.704193 
	C441.309937,340.139862 440.078766,343.502716 439.150208,347.735687 
M207.834030,358.281036 
	C205.563187,362.282104 203.292328,366.283203 200.963821,370.385834 
	C206.371124,372.057068 209.906738,370.889679 211.634521,365.767700 
	C212.001404,364.680084 212.871536,363.762238 213.238266,362.674591 
	C215.802292,355.070221 220.915527,352.973572 228.830414,353.529388 
	C240.316376,354.335968 240.358505,353.736176 241.890625,364.969635 
	C242.809616,371.707642 242.809601,371.707642 250.200104,370.250824 
	C247.025284,350.899017 243.847473,331.528900 240.727005,312.508392 
	C235.449631,311.047363 232.826691,312.765228 230.586227,316.997345 
	C223.349884,330.666473 215.653900,344.092285 207.834030,358.281036 
M522.451721,331.726990 
	C520.087708,333.368073 517.723694,335.009155 514.919495,336.955841 
	C515.209839,334.696747 515.428833,332.992432 515.678955,331.046600 
	C511.226532,330.902588 508.380371,331.406403 507.459381,336.722198 
	C505.392487,348.652130 502.466736,360.432526 499.925629,372.281311 
	C498.623749,378.351898 497.397095,384.438629 496.127655,390.560272 
	C502.253571,391.234131 504.498688,388.602234 504.990723,383.346252 
	C505.355927,379.445190 506.599884,375.626373 507.301270,372.454529 
	C512.556580,371.778778 517.399231,371.982971 521.614380,370.455505 
	C533.202393,366.256317 540.487183,352.408447 538.284363,340.114105 
	C536.738892,331.488647 531.492554,328.449890 522.451721,331.726990 
M352.551849,359.900360 
	C345.975250,350.257843 346.981476,338.088898 355.221558,327.614197 
	C363.248108,317.410950 373.206238,315.878387 389.562866,322.471039 
	C390.768707,320.615479 392.001373,318.718628 393.361328,316.625946 
	C391.914764,315.775177 390.974182,315.098389 389.938965,314.631439 
	C368.303528,304.872711 343.017456,319.226654 340.238922,342.826691 
	C338.523560,357.396484 345.560059,368.644653 358.391632,371.402435 
	C366.159576,373.071930 373.598328,371.494324 380.702148,368.139130 
	C386.103302,365.588104 386.274719,364.596161 381.997864,359.865570 
	C372.517029,365.000610 362.868622,368.879669 352.551849,359.900360 
M833.786377,343.715973 
	C836.101501,332.252899 838.416626,320.789795 840.764709,309.163666 
	C836.032837,308.427155 833.459778,309.082275 832.520813,314.410858 
	C830.305237,326.983643 827.231934,339.404419 824.548340,351.895874 
	C823.234680,358.010834 822.016907,364.146332 820.672119,370.678711 
	C823.386108,370.678711 825.447876,370.678711 827.722351,370.678711 
	C829.032349,364.683868 830.290771,358.924896 831.858032,351.752594 
	C835.367798,357.215668 838.623108,361.376099 840.870361,366.023956 
	C843.344360,371.140961 846.866455,371.843872 852.297913,370.323364 
	C847.803528,363.363586 843.514160,356.721405 839.076294,349.849274 
	C845.757629,343.815857 852.295166,337.912231 859.186646,331.688995 
	C852.894897,330.095551 848.529297,331.395416 844.601135,335.679382 
	C841.545776,339.011627 837.608948,341.535553 833.786377,343.715973 
M546.934021,346.594086 
	C545.932495,351.086578 544.608093,355.537476 544.022339,360.083527 
	C543.461426,364.437225 544.851501,368.577423 548.879395,370.818420 
	C553.252319,373.251404 557.605835,372.007538 561.510071,369.230499 
	C563.554077,367.776611 565.468018,366.139862 567.320984,364.680023 
	C568.063416,367.364227 568.692749,369.639709 569.430725,372.307739 
	C572.052673,371.278961 573.976379,370.524170 575.526001,369.916138 
	C573.623718,356.218140 580.312256,344.229767 580.750000,331.484192 
	C561.540466,328.802277 555.798462,331.303650 546.934021,346.594086 
M761.129883,371.196533 
	C764.956055,371.758820 767.293579,371.200409 767.075623,366.232605 
	C766.882385,361.830048 767.765869,357.327789 768.581482,352.945343 
	C769.903870,345.839539 771.559631,338.795746 773.181885,331.225159 
	C766.464417,331.225159 760.105042,329.999634 754.456848,331.482758 
	C743.034424,334.482056 735.349243,347.911652 735.899353,361.451874 
	C736.262329,370.385223 743.205444,374.621521 751.093811,370.478851 
	C754.076721,368.912323 756.658752,366.582581 759.413513,364.607941 
	C759.882080,366.713623 760.306824,368.622437 761.129883,371.196533 
M322.597961,359.104126 
	C327.549011,350.143738 332.500092,341.183350 337.632538,331.894684 
	C331.934357,330.170563 328.790405,330.859039 327.194214,336.164642 
	C326.060028,339.934540 323.895966,343.421875 321.988220,346.924591 
	C319.747314,351.039032 317.286346,355.033630 314.280457,360.175598 
	C313.162720,351.206024 312.438171,343.784729 311.259827,336.436218 
	C310.287750,330.374298 309.818726,330.277039 303.162262,331.832855 
	C303.757324,335.722778 304.391052,339.630493 304.944702,343.549530 
	C305.524811,347.655884 305.933319,351.788177 306.582550,355.882874 
	C308.603485,368.628723 304.605835,376.986206 293.440094,382.926361 
	C291.416351,384.002991 289.242706,384.797943 287.188995,385.700623 
	C287.775543,391.567047 288.633575,392.306488 293.477356,390.110657 
	C296.456757,388.759979 299.665070,387.125763 301.748077,384.729889 
	C308.812195,376.604889 315.420898,368.083923 322.597961,359.104126 
M634.974976,351.654755 
	C635.086426,353.148376 634.978516,354.698242 635.344727,356.126556 
	C637.838989,365.853790 635.493713,373.864044 627.018738,379.624664 
	C623.622498,381.933105 620.002869,383.912781 616.299255,386.154449 
	C616.347900,391.356720 617.345764,392.179901 622.215210,390.235382 
	C624.200989,389.442383 626.387451,388.552704 627.815857,387.066193 
	C634.134888,380.490265 641.062988,374.265869 646.175049,366.818878 
	C653.731873,355.810547 659.935852,343.873535 666.865845,332.076660 
	C660.775085,330.022675 658.119446,331.279724 656.025085,336.195740 
	C652.683167,344.039734 648.252014,351.419708 644.281433,358.995880 
	C642.198120,351.211273 641.267639,343.885956 640.177307,336.584534 
	C639.253845,330.400391 639.171997,330.412598 632.126282,331.728302 
	C633.051147,338.054382 633.979431,344.404327 634.974976,351.654755 
M393.977081,345.703796 
	C393.406494,347.782074 392.554413,349.828796 392.317291,351.944458 
	C391.559479,358.705353 392.699615,365.029388 398.605438,369.256287 
	C404.532928,373.498688 410.951569,372.897156 416.908173,369.350189 
	C425.242004,364.387787 429.400116,356.558472 429.790100,347.059967 
	C430.315247,334.269928 419.618225,327.082703 407.589874,331.646667 
	C401.088623,334.113464 397.062683,338.906494 393.977081,345.703796 
M266.999512,353.759125 
	C268.939240,347.173920 273.380981,342.522461 279.000824,339.031860 
	C280.779083,337.927307 283.260803,337.955292 285.420563,337.464966 
	C285.784790,339.776886 286.778564,342.197083 286.402679,344.381653 
	C284.899567,353.117096 282.970947,361.779327 281.211639,370.410431 
	C286.544861,372.143341 288.801849,370.644012 289.546997,365.286316 
	C290.595673,357.745728 292.412354,350.296051 294.204529,342.880951 
	C295.225342,338.657318 295.171448,334.871857 291.597382,331.989380 
	C287.839478,328.958740 283.728210,329.804749 279.879761,331.803558 
	C276.986298,333.306366 274.334137,335.273804 271.214050,337.264435 
	C271.214050,334.970795 271.214050,333.109802 271.214050,331.224884 
	C266.420410,330.420319 263.846252,332.073669 263.071777,336.865112 
	C262.145721,342.594543 260.785645,348.253784 259.615173,353.943756 
	C258.491241,359.407532 257.369385,364.871765 256.250000,370.319366 
	C261.208588,372.014099 263.922150,370.980042 264.546173,365.757843 
	C264.997101,361.984039 266.072601,358.284912 266.999512,353.759125 
M737.978760,262.269501 
	C725.733154,267.523895 719.849426,278.893555 721.262756,294.611938 
	C729.612122,294.611938 737.958618,294.611938 747.125183,294.611938 
	C746.330383,283.051270 745.567017,271.947632 744.762390,260.244568 
	C741.854980,261.084808 740.285278,261.538452 737.978760,262.269501 
M339.939423,285.522430 
	C339.593506,283.725281 339.320251,281.910553 338.889862,280.133881 
	C336.142029,268.790131 329.147125,262.365540 317.028046,260.929443 
	C316.293549,272.125092 315.563049,283.259674 314.815979,294.647583 
	C324.172119,294.647583 332.537201,294.647583 341.282227,294.647583 
	C340.837219,291.620270 340.452087,289.000244 339.939423,285.522430 
M802.946472,365.417480 
	C802.684509,367.125336 802.422546,368.833191 802.126282,370.764526 
	C804.584717,370.764526 806.526367,370.764526 809.058289,370.764526 
	C811.090027,360.808258 813.367676,350.978241 815.047974,341.047150 
	C816.804504,330.665436 808.181519,328.198120 801.591919,331.368286 
	C797.939453,333.125427 794.706482,335.754425 791.116943,338.099854 
	C791.408569,335.826447 791.692261,333.614807 791.998291,331.228760 
	C787.553528,330.656036 784.935242,331.675323 784.099609,336.163361 
	C782.551453,344.478699 780.676025,352.733063 778.939880,361.013458 
	C778.280212,364.159973 777.629089,367.308289 776.981262,370.420868 
	C782.099426,371.866058 785.060364,371.013275 785.171265,365.564697 
	C785.208008,363.763031 785.867920,361.982056 786.135986,360.175720 
	C787.535034,350.750488 791.944824,343.242157 800.392151,338.566925 
	C802.033875,337.658264 804.936462,337.105591 806.178772,337.958984 
	C807.330872,338.750549 807.601196,341.737610 807.285339,343.591949 
	C806.087952,350.622559 804.495117,357.585815 802.946472,365.417480 
z"/>
<path fill="#137EF1" opacity="1.000000" stroke="none" 
	d="
M465.381134,65.408501 
	C486.222626,49.848289 506.814148,34.551121 527.296814,19.109516 
	C529.868530,17.170771 531.614624,17.074535 534.240540,19.041887 
	C567.034180,43.610744 599.914551,68.063889 632.764465,92.557579 
	C633.786316,93.319489 634.721069,94.198196 636.466370,95.673141 
	C565.873535,95.673141 496.243530,95.673141 424.825714,95.673141 
	C438.979034,85.113739 452.038422,75.370491 465.381134,65.408501 
M536.453796,72.099205 
	C542.221436,67.265694 542.759033,60.253006 537.689453,55.979572 
	C533.939941,52.818893 527.963928,52.676811 524.395020,55.663475 
	C520.520813,58.905647 519.538330,64.373886 522.055481,68.684731 
	C524.885742,73.531837 529.531616,74.827736 536.453796,72.099205 
z"/>
<path fill="#157FF1" opacity="1.000000" stroke="none" 
	d="
M437.018341,246.905426 
	C437.021301,243.616165 437.021301,240.807907 437.021301,237.660690 
	C499.670776,237.660690 561.889221,237.660690 624.766357,237.660690 
	C624.766357,241.771454 624.766357,245.829453 624.766357,250.504379 
	C631.967834,250.504379 638.529541,250.504379 645.358765,250.504379 
	C645.358765,258.551758 645.358765,265.960175 645.358765,273.735291 
	C569.102600,273.735291 493.057739,273.735291 416.626068,273.735291 
	C416.626068,266.316101 416.626068,258.898529 416.626068,250.562103 
	C421.925903,250.562103 427.333740,250.545486 432.741425,250.570053 
	C434.995941,250.580292 437.296844,250.741135 437.018341,246.905426 
z"/>
<path fill="#167FF1" opacity="1.000000" stroke="none" 
	d="
M479.978668,208.868317 
	C479.978638,211.165009 479.978638,212.980453 479.978638,215.212799 
	C469.102203,215.212799 458.556702,215.212799 447.591705,215.212799 
	C447.591705,183.077255 447.591705,150.900681 447.591705,118.290375 
	C458.090027,118.290375 468.627045,118.290375 479.978699,118.290375 
	C479.978699,148.285034 479.978699,178.336044 479.978668,208.868317 
z"/>
<path fill="#167FF1" opacity="1.000000" stroke="none" 
	d="
M581.868103,153.000000 
	C581.868042,141.208847 581.868042,129.917694 581.868042,118.245132 
	C592.813599,118.245132 603.368103,118.245132 614.471130,118.245132 
	C614.540527,119.821426 614.672058,121.425575 614.672729,123.029770 
	C614.685059,152.156311 614.603577,181.283295 614.769958,210.408890 
	C614.793640,214.535995 613.679260,215.868500 609.482605,215.724121 
	C600.535461,215.416367 591.570435,215.630035 581.868164,215.630035 
	C581.868164,194.618835 581.868164,174.059418 581.868103,153.000000 
z"/>
<path fill="#137DF1" opacity="1.000000" stroke="none" 
	d="
M537.938477,215.616516 
	C529.995605,215.616348 522.544617,215.616348 514.811279,215.616348 
	C514.811279,182.803604 514.811279,150.568970 514.811279,118.102219 
	C525.582642,118.102219 536.023499,118.102219 546.850098,118.102219 
	C546.850098,150.511917 546.850098,182.736969 546.850098,215.616684 
	C544.001587,215.616684 541.215942,215.616684 537.938477,215.616516 
z"/>
<path fill="#FCFDFF" opacity="1.000000" stroke="none" 
	d="
M444.804260,462.341309 
	C438.271851,446.506348 426.732666,435.367645 413.780426,425.465790 
	C404.677979,418.507080 395.449432,411.713379 385.086975,403.954895 
	C387.860840,403.813477 389.362793,403.670593 390.864807,403.670013 
	C424.488647,403.657257 458.113098,403.755341 491.735565,403.542175 
	C496.037262,403.514923 498.021515,405.260590 499.646240,408.735199 
	C510.135590,431.167206 508.866455,453.600769 499.636353,475.980194 
	C499.119324,477.233826 496.963745,478.563202 495.554413,478.581360 
	C480.908844,478.770355 466.258636,478.779999 451.614227,478.550049 
	C450.361816,478.530365 448.483704,476.648804 448.031036,475.261810 
	C446.697510,471.175598 445.934814,466.903137 444.804260,462.341309 
z"/>
<path fill="#FCFDFF" opacity="1.000000" stroke="none" 
	d="
M621.367188,453.458984 
	C618.772522,460.802704 616.083374,467.758453 614.134766,474.915802 
	C613.375000,477.706268 612.650024,478.783203 609.705139,478.757111 
	C595.389038,478.630249 581.069519,478.802277 566.756531,478.556488 
	C565.133606,478.528625 562.682312,476.895996 562.068970,475.408203 
	C553.049744,453.529358 551.847534,431.587738 561.837769,409.547455 
	C563.814453,405.186584 566.282288,403.500244 571.237671,403.536163 
	C604.198730,403.774872 637.162415,403.659973 670.125244,403.660004 
	C671.878113,403.660004 673.631042,403.660004 675.383911,403.660004 
	C675.495972,404.025482 675.608093,404.390961 675.720154,404.756439 
	C669.524963,409.361572 663.351990,413.997070 657.129944,418.565704 
	C643.671143,428.447937 630.556274,438.675537 621.367188,453.458984 
z"/>
<path fill="#B6D0EF" opacity="1.000000" stroke="none" 
	d="
M694.172241,370.978790 
	C692.235229,370.895172 690.775574,370.811615 688.576538,370.685699 
	C690.428589,361.356140 692.215027,352.450378 693.960754,343.536652 
	C695.684753,334.733887 697.466248,325.940338 699.018677,317.106934 
	C699.619324,313.689240 700.689819,311.675476 704.737793,312.136658 
	C709.515015,312.681000 714.379333,312.454071 719.159668,312.980682 
	C724.187927,313.534576 728.617371,315.554260 730.342163,320.805878 
	C732.150879,326.313049 730.822815,331.310394 726.916992,335.589966 
	C725.686829,336.937897 724.381287,338.217072 722.882507,339.762543 
	C729.209961,345.006256 730.679382,351.709930 727.437073,358.963837 
	C723.807922,367.083405 716.657898,370.412201 708.140930,370.924500 
	C703.658936,371.194061 699.147644,370.976440 694.172241,370.978790 
M720.338562,355.537201 
	C721.725891,351.667450 721.337280,347.262451 717.591187,346.066132 
	C712.743652,344.518066 707.257141,344.956757 702.040466,344.621674 
	C701.787964,344.605438 701.320312,345.340515 701.230286,345.782227 
	C700.021606,351.710938 698.862488,357.649719 697.688354,363.599152 
	C710.280151,365.616669 716.264526,363.551697 720.338562,355.537201 
M717.488159,319.627563 
	C713.793274,319.378967 710.098389,319.130341 706.309875,318.875458 
	C705.073792,325.507843 703.991699,331.313721 702.912964,337.101746 
	C712.373657,339.211731 718.567322,336.890869 721.891724,330.237396 
	C724.273376,325.470764 723.114136,322.145630 717.488159,319.627563 
z"/>
<path fill="#B6D0EF" opacity="1.000000" stroke="none" 
	d="
M439.217438,347.316956 
	C440.078766,343.502716 441.309937,340.139862 441.566711,336.704193 
	C441.973572,331.260956 445.300629,330.899506 449.677124,331.047882 
	C449.381805,333.330750 449.122314,335.336548 448.815735,337.706238 
	C463.614929,327.471497 467.440186,327.529999 472.319397,337.904297 
	C475.289124,335.873749 478.155365,333.717529 481.211273,331.876190 
	C484.697388,329.775604 488.488922,329.139313 492.024414,331.648041 
	C495.491699,334.108368 495.642059,337.966492 494.940094,341.631409 
	C493.096893,351.254456 490.965454,360.822266 488.894104,370.672577 
	C486.668976,370.672577 484.585083,370.672577 481.762878,370.672577 
	C483.069733,364.343994 484.348907,358.263458 485.574310,352.172058 
	C486.295502,348.587067 487.180328,345.009338 487.536804,341.383667 
	C487.907227,337.616516 485.682678,336.202606 482.251465,337.927429 
	C475.865143,341.137695 471.428986,346.258240 469.175537,352.989105 
	C467.810486,357.066437 467.051086,361.361420 466.213959,365.597076 
	C465.018372,371.646362 464.991913,371.723633 458.158691,370.324249 
	C459.944427,361.557526 461.867584,352.813934 463.414001,344.004211 
	C463.774139,341.952728 462.852905,339.676361 462.521179,337.503448 
	C460.397339,338.064606 457.911377,338.103821 456.214935,339.280975 
	C450.175110,343.471832 445.683594,348.773041 444.665771,356.550720 
	C444.065033,361.141174 442.628540,365.622284 441.470490,370.568634 
	C439.559753,370.568634 437.507538,370.568634 434.607300,370.568634 
	C436.143005,362.850037 437.646606,355.292847 439.217438,347.316956 
z"/>
<path fill="#B5CFEF" opacity="1.000000" stroke="none" 
	d="
M207.984528,357.946442 
	C215.653900,344.092285 223.349884,330.666473 230.586227,316.997345 
	C232.826691,312.765228 235.449631,311.047363 240.727005,312.508392 
	C243.847473,331.528900 247.025284,350.899017 250.200104,370.250824 
	C242.809601,371.707642 242.809616,371.707642 241.890625,364.969635 
	C240.358505,353.736176 240.316376,354.335968 228.830414,353.529388 
	C220.915527,352.973572 215.802292,355.070221 213.238266,362.674591 
	C212.871536,363.762238 212.001404,364.680084 211.634521,365.767700 
	C209.906738,370.889679 206.371124,372.057068 200.963821,370.385834 
	C203.292328,366.283203 205.563187,362.282104 207.984528,357.946442 
M231.479935,347.014374 
	C233.863663,347.014374 236.247391,347.014374 239.072449,347.014374 
	C237.740860,339.078491 236.561356,332.049011 235.381851,325.019531 
	C234.989212,324.965179 234.596558,324.910828 234.203903,324.856476 
	C230.249969,331.996460 226.296021,339.136475 221.933441,347.014404 
	C225.384216,347.014404 227.967224,347.014404 231.479935,347.014374 
z"/>
<path fill="#B5CFEF" opacity="1.000000" stroke="none" 
	d="
M522.779297,331.524963 
	C531.492554,328.449890 536.738892,331.488647 538.284363,340.114105 
	C540.487183,352.408447 533.202393,366.256317 521.614380,370.455505 
	C517.399231,371.982971 512.556580,371.778778 507.301270,372.454529 
	C506.599884,375.626373 505.355927,379.445190 504.990723,383.346252 
	C504.498688,388.602234 502.253571,391.234131 496.127655,390.560272 
	C497.397095,384.438629 498.623749,378.351898 499.925629,372.281311 
	C502.466736,360.432526 505.392487,348.652130 507.459381,336.722198 
	C508.380371,331.406403 511.226532,330.902588 515.678955,331.046600 
	C515.428833,332.992432 515.209839,334.696747 514.919495,336.955841 
	C517.723694,335.009155 520.087708,333.368073 522.779297,331.524963 
M531.043640,345.501678 
	C529.987000,342.698029 528.930298,339.894409 527.873596,337.090820 
	C525.126709,338.295959 521.363220,338.759857 519.835938,340.854279 
	C516.205322,345.833221 513.282471,351.431061 510.811066,357.100311 
	C509.865082,359.270447 510.928528,362.316559 511.076294,364.963501 
	C514.231628,364.662689 517.807190,365.210541 520.460754,363.896454 
	C527.471191,360.424835 530.210327,353.854736 531.043640,345.501678 
z"/>
<path fill="#B6CFEF" opacity="1.000000" stroke="none" 
	d="
M352.796112,360.179626 
	C362.868622,368.879669 372.517029,365.000610 381.997864,359.865570 
	C386.274719,364.596161 386.103302,365.588104 380.702148,368.139130 
	C373.598328,371.494324 366.159576,373.071930 358.391632,371.402435 
	C345.560059,368.644653 338.523560,357.396484 340.238922,342.826691 
	C343.017456,319.226654 368.303528,304.872711 389.938965,314.631439 
	C390.974182,315.098389 391.914764,315.775177 393.361328,316.625946 
	C392.001373,318.718628 390.768707,320.615479 389.562866,322.471039 
	C373.206238,315.878387 363.248108,317.410950 355.221558,327.614197 
	C346.981476,338.088898 345.975250,350.257843 352.796112,360.179626 
z"/>
<path fill="#B6CFEF" opacity="1.000000" stroke="none" 
	d="
M833.925171,344.067352 
	C837.608948,341.535553 841.545776,339.011627 844.601135,335.679382 
	C848.529297,331.395416 852.894897,330.095551 859.186646,331.688995 
	C852.295166,337.912231 845.757629,343.815857 839.076294,349.849274 
	C843.514160,356.721405 847.803528,363.363586 852.297913,370.323364 
	C846.866455,371.843872 843.344360,371.140961 840.870361,366.023956 
	C838.623108,361.376099 835.367798,357.215668 831.858032,351.752594 
	C830.290771,358.924896 829.032349,364.683868 827.722351,370.678711 
	C825.447876,370.678711 823.386108,370.678711 820.672119,370.678711 
	C822.016907,364.146332 823.234680,358.010834 824.548340,351.895874 
	C827.231934,339.404419 830.305237,326.983643 832.520813,314.410858 
	C833.459778,309.082275 836.032837,308.427155 840.764709,309.163666 
	C838.416626,320.789795 836.101501,332.252899 833.925171,344.067352 
z"/>
<path fill="#B6CFEF" opacity="1.000000" stroke="none" 
	d="
M547.052429,346.233337 
	C555.798462,331.303650 561.540466,328.802277 580.750000,331.484192 
	C580.312256,344.229767 573.623718,356.218140 575.526001,369.916138 
	C573.976379,370.524170 572.052673,371.278961 569.430725,372.307739 
	C568.692749,369.639709 568.063416,367.364227 567.320984,364.680023 
	C565.468018,366.139862 563.554077,367.776611 561.510071,369.230499 
	C557.605835,372.007538 553.252319,373.251404 548.879395,370.818420 
	C544.851501,368.577423 543.461426,364.437225 544.022339,360.083527 
	C544.608093,355.537476 545.932495,351.086578 547.052429,346.233337 
M563.036621,360.543518 
	C569.671875,354.176056 571.458313,345.859314 572.645996,337.288239 
	C568.329773,335.810883 565.312012,336.128357 561.752930,338.822876 
	C556.199707,343.027008 552.541443,348.603882 552.130981,355.599976 
	C551.944031,358.786316 553.363342,362.066895 554.054016,365.304779 
	C556.879639,363.886230 559.705200,362.467682 563.036621,360.543518 
z"/>
<path fill="#B6D0EF" opacity="1.000000" stroke="none" 
	d="
M760.930725,370.863892 
	C760.306824,368.622437 759.882080,366.713623 759.413513,364.607941 
	C756.658752,366.582581 754.076721,368.912323 751.093811,370.478851 
	C743.205444,374.621521 736.262329,370.385223 735.899353,361.451874 
	C735.349243,347.911652 743.034424,334.482056 754.456848,331.482758 
	C760.105042,329.999634 766.464417,331.225159 773.181885,331.225159 
	C771.559631,338.795746 769.903870,345.839539 768.581482,352.945343 
	C767.765869,357.327789 766.882385,361.830048 767.075623,366.232605 
	C767.293579,371.200409 764.956055,371.758820 760.930725,370.863892 
M750.589172,364.130219 
	C758.435486,358.894440 762.125549,351.127777 763.743408,342.190613 
	C764.046204,340.518036 764.137329,337.528229 763.408508,337.203033 
	C761.669128,336.426910 759.198120,336.320648 757.347534,336.930298 
	C748.977173,339.687927 741.662903,352.484009 743.362122,361.103302 
	C744.097534,364.833832 745.944214,366.948059 750.589172,364.130219 
z"/>
<path fill="#B6CFEF" opacity="1.000000" stroke="none" 
	d="
M322.400757,359.409180 
	C315.420898,368.083923 308.812195,376.604889 301.748077,384.729889 
	C299.665070,387.125763 296.456757,388.759979 293.477356,390.110657 
	C288.633575,392.306488 287.775543,391.567047 287.188995,385.700623 
	C289.242706,384.797943 291.416351,384.002991 293.440094,382.926361 
	C304.605835,376.986206 308.603485,368.628723 306.582550,355.882874 
	C305.933319,351.788177 305.524811,347.655884 304.944702,343.549530 
	C304.391052,339.630493 303.757324,335.722778 303.162262,331.832855 
	C309.818726,330.277039 310.287750,330.374298 311.259827,336.436218 
	C312.438171,343.784729 313.162720,351.206024 314.280457,360.175598 
	C317.286346,355.033630 319.747314,351.039032 321.988220,346.924591 
	C323.895966,343.421875 326.060028,339.934540 327.194214,336.164642 
	C328.790405,330.859039 331.934357,330.170563 337.632538,331.894684 
	C332.500092,341.183350 327.549011,350.143738 322.400757,359.409180 
z"/>
<path fill="#B6CFEF" opacity="1.000000" stroke="none" 
	d="
M634.941406,351.204529 
	C633.979431,344.404327 633.051147,338.054382 632.126282,331.728302 
	C639.171997,330.412598 639.253845,330.400391 640.177307,336.584534 
	C641.267639,343.885956 642.198120,351.211273 644.281433,358.995880 
	C648.252014,351.419708 652.683167,344.039734 656.025085,336.195740 
	C658.119446,331.279724 660.775085,330.022675 666.865845,332.076660 
	C659.935852,343.873535 653.731873,355.810547 646.175049,366.818878 
	C641.062988,374.265869 634.134888,380.490265 627.815857,387.066193 
	C626.387451,388.552704 624.200989,389.442383 622.215210,390.235382 
	C617.345764,392.179901 616.347900,391.356720 616.299255,386.154449 
	C620.002869,383.912781 623.622498,381.933105 627.018738,379.624664 
	C635.493713,373.864044 637.838989,365.853790 635.344727,356.126556 
	C634.978516,354.698242 635.086426,353.148376 634.941406,351.204529 
z"/>
<path fill="#B5CFEF" opacity="1.000000" stroke="none" 
	d="
M394.096008,345.332703 
	C397.062683,338.906494 401.088623,334.113464 407.589874,331.646667 
	C419.618225,327.082703 430.315247,334.269928 429.790100,347.059967 
	C429.400116,356.558472 425.242004,364.387787 416.908173,369.350189 
	C410.951569,372.897156 404.532928,373.498688 398.605438,369.256287 
	C392.699615,365.029388 391.559479,358.705353 392.317291,351.944458 
	C392.554413,349.828796 393.406494,347.782074 394.096008,345.332703 
M400.004211,352.771973 
	C400.002319,353.932617 399.624573,355.268158 400.068207,356.221466 
	C401.458679,359.209167 402.507843,363.419769 404.921326,364.568909 
	C407.348145,365.724487 411.874817,364.702515 414.387360,363.010376 
	C420.904694,358.621094 422.694580,351.620972 421.775818,344.136841 
	C420.945496,337.373322 415.394073,334.737396 409.245789,337.955750 
	C403.674042,340.872284 400.951172,345.832886 400.004211,352.771973 
z"/>
<path fill="#B5CFEF" opacity="1.000000" stroke="none" 
	d="
M266.934540,354.155792 
	C266.072601,358.284912 264.997101,361.984039 264.546173,365.757843 
	C263.922150,370.980042 261.208588,372.014099 256.250000,370.319366 
	C257.369385,364.871765 258.491241,359.407532 259.615173,353.943756 
	C260.785645,348.253784 262.145721,342.594543 263.071777,336.865112 
	C263.846252,332.073669 266.420410,330.420319 271.214050,331.224884 
	C271.214050,333.109802 271.214050,334.970795 271.214050,337.264435 
	C274.334137,335.273804 276.986298,333.306366 279.879761,331.803558 
	C283.728210,329.804749 287.839478,328.958740 291.597382,331.989380 
	C295.171448,334.871857 295.225342,338.657318 294.204529,342.880951 
	C292.412354,350.296051 290.595673,357.745728 289.546997,365.286316 
	C288.801849,370.644012 286.544861,372.143341 281.211639,370.410431 
	C282.970947,361.779327 284.899567,353.117096 286.402679,344.381653 
	C286.778564,342.197083 285.784790,339.776886 285.420563,337.464966 
	C283.260803,337.955292 280.779083,337.927307 279.000824,339.031860 
	C273.380981,342.522461 268.939240,347.173920 266.934540,354.155792 
z"/>
<path fill="#F8FBFF" opacity="1.000000" stroke="none" 
	d="
M738.347168,262.130798 
	C740.285278,261.538452 741.854980,261.084808 744.762390,260.244568 
	C745.567017,271.947632 746.330383,283.051270 747.125183,294.611938 
	C737.958618,294.611938 729.612122,294.611938 721.262756,294.611938 
	C719.849426,278.893555 725.733154,267.523895 738.347168,262.130798 
z"/>
<path fill="#B6CFEF" opacity="1.000000" stroke="none" 
	d="
M600.306213,337.255188 
	C604.154053,335.041992 607.777649,332.178192 611.898743,330.758026 
	C619.299072,328.207733 624.771423,333.476105 623.275269,341.224976 
	C621.702148,349.373230 619.985657,357.493958 618.307251,365.621643 
	C617.117004,371.384979 617.098877,371.381226 610.136353,370.480072 
	C611.499084,363.715454 612.845703,356.972046 614.223450,350.234985 
	C614.555542,348.611328 615.333130,347.002075 615.301514,345.398102 
	C615.249268,342.750977 614.704956,340.113586 614.368103,337.472076 
	C611.789429,338.227356 608.845703,338.428406 606.700378,339.841583 
	C600.194336,344.127289 595.965454,350.100189 594.917603,358.079742 
	C594.573608,360.699768 593.449646,363.236023 593.255615,365.853088 
	C592.877930,370.945862 590.172241,371.877472 585.222900,370.424835 
	C586.874207,362.294800 588.531128,354.095917 590.208435,345.901154 
	C590.806824,342.977478 591.721985,340.090851 592.020203,337.139587 
	C592.542969,331.966492 595.405945,330.479034 600.435730,331.212494 
	C600.228516,332.932190 600.037720,334.515259 599.637390,336.635498 
	C599.426147,337.565186 599.424500,337.957672 599.422852,338.350159 
	C599.717285,337.985168 600.011780,337.620178 600.306213,337.255188 
z"/>
<path fill="#F9FBFF" opacity="1.000000" stroke="none" 
	d="
M340.003174,285.951294 
	C340.452087,289.000244 340.837219,291.620270 341.282227,294.647583 
	C332.537201,294.647583 324.172119,294.647583 314.815979,294.647583 
	C315.563049,283.259674 316.293549,272.125092 317.028046,260.929443 
	C329.147125,262.365540 336.142029,268.790131 338.889862,280.133881 
	C339.320251,281.910553 339.593506,283.725281 340.003174,285.951294 
z"/>
<path fill="#B6CFEF" opacity="1.000000" stroke="none" 
	d="
M802.998291,364.995880 
	C804.495117,357.585815 806.087952,350.622559 807.285339,343.591949 
	C807.601196,341.737610 807.330872,338.750549 806.178772,337.958984 
	C804.936462,337.105591 802.033875,337.658264 800.392151,338.566925 
	C791.944824,343.242157 787.535034,350.750488 786.135986,360.175720 
	C785.867920,361.982056 785.208008,363.763031 785.171265,365.564697 
	C785.060364,371.013275 782.099426,371.866058 776.981262,370.420868 
	C777.629089,367.308289 778.280212,364.159973 778.939880,361.013458 
	C780.676025,352.733063 782.551453,344.478699 784.099609,336.163361 
	C784.935242,331.675323 787.553528,330.656036 791.998291,331.228760 
	C791.692261,333.614807 791.408569,335.826447 791.116943,338.099854 
	C794.706482,335.754425 797.939453,333.125427 801.591919,331.368286 
	C808.181519,328.198120 816.804504,330.665436 815.047974,341.047150 
	C813.367676,350.978241 811.090027,360.808258 809.058289,370.764526 
	C806.526367,370.764526 804.584717,370.764526 802.126282,370.764526 
	C802.422546,368.833191 802.684509,367.125336 802.998291,364.995880 
z"/>
<path fill="#F5FAFE" opacity="1.000000" stroke="none" 
	d="
M536.135864,72.311432 
	C529.531616,74.827736 524.885742,73.531837 522.055481,68.684731 
	C519.538330,64.373886 520.520813,58.905647 524.395020,55.663475 
	C527.963928,52.676811 533.939941,52.818893 537.689453,55.979572 
	C542.759033,60.253006 542.221436,67.265694 536.135864,72.311432 
z"/>
<path fill="#147EF1" opacity="1.000000" stroke="none" 
	d="
M720.221985,355.910217 
	C716.264526,363.551697 710.280151,365.616669 697.688354,363.599152 
	C698.862488,357.649719 700.021606,351.710938 701.230286,345.782227 
	C701.320312,345.340515 701.787964,344.605438 702.040466,344.621674 
	C707.257141,344.956757 712.743652,344.518066 717.591187,346.066132 
	C721.337280,347.262451 721.725891,351.667450 720.221985,355.910217 
z"/>
<path fill="#167FF1" opacity="1.000000" stroke="none" 
	d="
M717.885742,319.757202 
	C723.114136,322.145630 724.273376,325.470764 721.891724,330.237396 
	C718.567322,336.890869 712.373657,339.211731 702.912964,337.101746 
	C703.991699,331.313721 705.073792,325.507843 706.309875,318.875458 
	C710.098389,319.130341 713.793274,319.378967 717.885742,319.757202 
z"/>
<path fill="#177FF1" opacity="1.000000" stroke="none" 
	d="
M231.015076,347.014404 
	C227.967224,347.014404 225.384216,347.014404 221.933441,347.014404 
	C226.296021,339.136475 230.249969,331.996460 234.203903,324.856476 
	C234.596558,324.910828 234.989212,324.965179 235.381851,325.019531 
	C236.561356,332.049011 237.740860,339.078491 239.072449,347.014374 
	C236.247391,347.014374 233.863663,347.014374 231.015076,347.014404 
z"/>
<path fill="#147EF1" opacity="1.000000" stroke="none" 
	d="
M531.029175,345.934143 
	C530.210327,353.854736 527.471191,360.424835 520.460754,363.896454 
	C517.807190,365.210541 514.231628,364.662689 511.076294,364.963501 
	C510.928528,362.316559 509.865082,359.270447 510.811066,357.100311 
	C513.282471,351.431061 516.205322,345.833221 519.835938,340.854279 
	C521.363220,338.759857 525.126709,338.295959 527.873596,337.090820 
	C528.930298,339.894409 529.987000,342.698029 531.029175,345.934143 
z"/>
<path fill="#157EF1" opacity="1.000000" stroke="none" 
	d="
M562.783691,360.796326 
	C559.705200,362.467682 556.879639,363.886230 554.054016,365.304749 
	C553.363342,362.066895 551.944031,358.786316 552.130981,355.599976 
	C552.541443,348.603882 556.199707,343.027008 561.752930,338.822876 
	C565.312012,336.128357 568.329773,335.810883 572.645996,337.288239 
	C571.458313,345.859314 569.671875,354.176056 562.783691,360.796326 
z"/>
<path fill="#167FF1" opacity="1.000000" stroke="none" 
	d="
M750.289062,364.322815 
	C745.944214,366.948059 744.097534,364.833832 743.362122,361.103302 
	C741.662903,352.484009 748.977173,339.687927 757.347534,336.930298 
	C759.198120,336.320648 761.669128,336.426910 763.408508,337.203033 
	C764.137329,337.528229 764.046204,340.518036 763.743408,342.190613 
	C762.125549,351.127777 758.435486,358.894440 750.289062,364.322815 
z"/>
<path fill="#147EF1" opacity="1.000000" stroke="none" 
	d="
M400.029266,352.342804 
	C400.951172,345.832886 403.674042,340.872284 409.245789,337.955750 
	C415.394073,334.737396 420.945496,337.373322 421.775818,344.136841 
	C422.694580,351.620972 420.904694,358.621094 414.387360,363.010376 
	C411.874817,364.702515 407.348145,365.724487 404.921326,364.568909 
	C402.507843,363.419769 401.458679,359.209167 400.068207,356.221466 
	C399.624573,355.268158 400.002319,353.932617 400.029266,352.342804 
z"/>
<path fill="#127DF1" opacity="1.000000" stroke="none" 
	d="
M600.191162,337.160858 
	C600.011780,337.620178 599.717285,337.985168 599.422852,338.350159 
	C599.424500,337.957672 599.426147,337.565186 599.638184,337.023682 
	C599.848511,336.874695 600.076111,337.066528 600.191162,337.160858 
z"/>
</svg>