<svg data-v-fde0c5aa="" xmlns="http://www.w3.org/2000/svg" viewBox="0 0 300 300" class="iconLeft"><!----><defs data-v-fde0c5aa=""><!----></defs><rect data-v-fde0c5aa="" fill="transparent" x="0" y="0" width="300px" height="300px" class="logo-background-square"></rect><defs data-v-fde0c5aa=""><!----></defs><g data-v-fde0c5aa="" id="ed715de0-3ea2-49b0-aba4-76b87b8ce750" fill="#000000" transform="matrix(2.245274084261646,0,0,2.245274084261646,95.51121712885656,134.19327013096213)"><path d="M5.94 4.40C5.25 3.75 4.37 3.47 3.36 3.47C1.96 3.46 0.60 4.05 0.62 5.40C0.63 6.79 1.96 7.04 3.30 7.27C4.44 7.45 5.59 7.64 5.56 8.64C5.52 9.73 4.24 9.95 3.40 9.95C2.48 9.95 1.44 9.60 0.87 8.78L0.36 9.23C0.97 10.15 2.17 10.61 3.39 10.61C4.61 10.61 6.19 10.21 6.23 8.68C6.30 7.07 4.61 6.86 3.37 6.65C2.51 6.50 1.30 6.31 1.27 5.39C1.25 4.51 2.28 4.10 3.36 4.12C4.13 4.12 4.82 4.23 5.52 4.84ZM8.44 3.56L8.44 10.50L7.76 10.50L7.76 3.56ZM7.56 1.33C7.56 2.06 8.67 2.06 8.67 1.33C8.67 0.60 7.56 0.60 7.56 1.33ZM21.34 10.50L21.34 6.36C21.34 4.63 20.13 3.44 18.44 3.44C17.37 3.44 16.30 4.02 15.88 5.15C15.47 3.92 14.36 3.44 13.31 3.44C12.42 3.44 11.54 3.82 11.06 4.73L11.05 3.58L10.40 3.58L10.40 10.50L11.09 10.50L11.09 6.40C11.09 5.07 11.98 4.10 13.30 4.10C14.62 4.10 15.53 5.07 15.53 6.40L15.53 10.50L16.21 10.50L16.21 6.40C16.21 5.07 17.12 4.09 18.44 4.09C19.75 4.09 20.65 5.03 20.65 6.36L20.65 10.50ZM26.64 9.97C25.06 9.97 23.84 8.75 23.84 7.06C23.84 5.36 25.03 4.14 26.64 4.14C28.21 4.14 29.47 5.10 29.47 7.04C29.47 8.99 28.21 9.97 26.64 9.97ZM23.79 13.38L23.79 8.90C24.37 10.05 25.47 10.63 26.64 10.63C28.59 10.63 30.16 9.37 30.16 7.04C30.16 4.82 28.67 3.56 26.80 3.49C25.45 3.49 24.35 4.17 23.80 5.22L23.80 3.58L23.13 3.58L23.13 13.38ZM31.84 0.70L31.84 10.50L32.52 10.50L32.52 0.70ZM37.56 10.60C38.67 10.60 39.87 10.15 40.54 9.27L40.05 8.88C39.54 9.56 38.47 9.93 37.56 9.93C36.13 9.93 34.89 8.99 34.75 7.36L40.98 7.36C41.24 4.66 39.51 3.47 37.56 3.47C35.62 3.47 34.05 4.97 34.05 7.04C34.05 9.24 35.62 10.60 37.56 10.60ZM34.75 6.76C34.90 5.07 36.13 4.10 37.56 4.10C39.23 4.10 40.35 5.05 40.36 6.76ZM46.27 4.13C47.82 4.13 49.10 5.10 49.10 7.04C49.10 8.96 47.82 9.94 46.27 9.94C44.65 9.94 43.44 8.75 43.44 7.03C43.44 5.31 44.67 4.13 46.27 4.13ZM42.76 0.70L42.76 10.50L43.43 10.50L43.43 8.97C44.00 10.02 45.14 10.61 46.31 10.61C48.24 10.61 49.77 9.34 49.77 7.04C49.77 4.76 48.23 3.47 46.30 3.47C45.11 3.47 43.99 3.98 43.43 5.10L43.43 0.70ZM57.41 3.58L57.41 5.10C56.84 4.02 55.71 3.50 54.59 3.50C52.65 3.50 51.07 4.93 51.07 7.04C51.07 9.16 52.65 10.61 54.59 10.61C55.71 10.61 56.74 10.11 57.41 9.03L57.41 10.50L58.10 10.50C58.10 8.19 58.10 5.89 58.10 3.58ZM54.59 4.16C58.44 4.16 58.44 9.94 54.59 9.94C53.02 9.94 51.76 8.78 51.76 7.04C51.76 5.31 53.02 4.16 54.59 4.16ZM59.96 3.58L59.96 10.50L60.65 10.50L60.65 6.65C60.65 5.22 61.64 4.14 63.07 4.13C64.57 4.12 65.53 4.96 65.53 6.52L65.53 10.50L66.22 10.50L66.22 6.51C66.22 4.59 64.95 3.46 63.10 3.46C62.13 3.47 61.17 3.86 60.63 4.82L60.63 3.58ZM68.01 0.70L68.01 10.50L68.68 10.50L68.68 7.11L72.39 10.50L73.26 10.50L73.26 10.46L69.36 6.85L72.86 3.61L72.86 3.58L71.95 3.58L68.68 6.61L68.68 0.70Z"></path></g><defs data-v-fde0c5aa=""><linearGradient data-v-fde0c5aa="" gradientTransform="rotate(25)" id="bc0881e2-5bf4-4663-bc79-153fa94b363b" x1="0%" y1="0%" x2="100%" y2="0%"><stop data-v-fde0c5aa="" offset="0%" stop-color="#410FF8" stop-opacity="1"></stop><stop data-v-fde0c5aa="" offset="100%" stop-color="#410FF8" stop-opacity="1"></stop></linearGradient></defs><g data-v-fde0c5aa="" id="89ba2eb5-41e8-4029-a002-33d484d346d1" stroke="none" fill="url(#bc0881e2-5bf4-4663-bc79-153fa94b363b)" transform="matrix(1.353312030702873,0,0,1.353312030702873,40.00676656063246,128.3470076700814)"><path d="M16 23.787L8.102 16 16 8.213 23.898 16 16 23.787zM9.525 16L16 22.383 22.475 16 16 9.617 9.525 16z"></path><path d="M15.915 31.778L-.005 16.084 16.085.222l15.92 15.694-16.09 15.862zM1.419 16.084l14.496 14.29 14.666-14.458-14.496-14.29L1.419 16.084z"></path><path d="M15.5.924h1v30.152h-1z"></path></g><!----></svg>